<?xml version="1.0" encoding="utf-8"?>
<!-- Generator: Adobe Adobe Illustrator 24.2.0, SVG Export Plug-In . SVG Version: 6.00 Build 0)  -->
<svg version="1.1" xmlns="http://www.w3.org/2000/svg" xmlns:xlink="http://www.w3.org/1999/xlink" x="0px" y="0px" width="1024px"
	 height="1024px" viewBox="0 0 1024 1024" style="enable-background:new 0 0 1024 1024;" xml:space="preserve">
<style type="text/css">
	.st0{fill:#101010;}
	.st1{fill:#F5F5F5;}
</style>
<g id="Layer_1">
	<rect y="0" class="st0" width="1024" height="1024"/>
	<g>
		<path class="st1" d="M775.04,727.24c0,8.1-3.26,15.19-8.7,21.27c-6.52,6.08-15.22,8.1-22.83,8.1c-8.7,0-16.3-2.03-22.83-8.1
			L598.96,635.07c-6.52-6.08-15.22-9.12-22.83-9.12c-16.3,0-31.52,12.15-31.52,30.39v100.28c0,16.21-14.13,30.39-32.61,30.39
			c-17.39,0-31.52-14.18-31.52-30.39V656.34c0-18.23-16.3-30.39-32.61-30.39c-7.61,0-16.3,3.04-22.83,9.12L304.39,747.5
			c-6.52,6.08-14.13,9.12-22.83,9.12c-8.7,0-17.39-3.04-22.83-9.12c-6.52-5.06-9.78-13.17-9.78-21.27c0-8.1,3.26-15.19,9.78-21.27
			l120.65-112.43c6.52-6.08,9.78-14.18,9.78-21.27c0-15.19-13.04-30.39-32.61-30.39h-86.96c-18.48,0-32.61-13.17-32.61-29.37
			c0-16.21,14.13-30.39,32.61-30.39h86.96c19.57,0,32.61-14.18,32.61-29.37c0-7.09-3.26-15.19-9.78-21.27L258.74,317.02
			c-6.52-5.06-9.78-13.17-9.78-21.27c0-8.1,3.26-15.19,9.78-21.27c5.43-5.06,13.04-8.1,21.74-8.1c7.61,0,16.3,3.04,22.83,8.1
			l121.74,113.44c6.52,6.08,15.22,9.12,22.83,9.12c16.3,0,32.61-12.16,32.61-30.39V266.37c0-16.21,14.13-29.37,31.52-29.37
			c18.48,0,32.61,13.17,32.61,29.37v100.28c0,18.23,16.3,30.39,32.61,30.39c7.61,0,15.22-3.04,21.74-9.12L720.7,274.48
			c5.43-5.06,14.13-8.1,22.83-8.1c8.7,0,16.3,3.04,22.83,8.1c5.43,6.08,8.7,13.17,8.7,21.27c0,8.1-3.26,16.21-8.7,21.27
			L644.61,430.46c-6.52,6.08-8.7,13.17-8.7,20.26c0,15.19,11.96,30.39,31.52,30.39h88.04c17.39,0,31.52,14.18,31.52,30.39
			c0,16.21-14.13,29.37-31.52,29.37h-88.04c-19.57,0-31.52,15.19-31.52,30.39c0,7.09,2.17,15.19,8.7,21.27l121.74,113.44
			C771.78,712.05,775.04,719.14,775.04,727.24z"/>
	</g>
</g>
<g id="Layer_2">
</g>
<g id="Layer_3">
</g>
</svg>
